<svg width="51" height="15" viewBox="0 0 51 15" fill="none" xmlns="http://www.w3.org/2000/svg">
    <path d="M26.7675 10.0543C26.7253 10.2802 26.6832 10.5052 26.6282 10.8001C26.3988 10.7341 26.1824 10.6714 25.9158 10.5943C25.8152 10.6326 25.652 10.7279 25.4782 10.7542C24.9181 10.8389 24.5174 10.375 24.6165 9.7651C24.6739 9.41131 24.7539 9.06135 24.8199 8.70899C24.8975 8.29488 24.9396 7.86927 25.234 7.53032C25.2585 7.50207 25.2676 7.43505 25.2518 7.40154C25.123 7.13009 25.1742 6.85577 25.2273 6.58049C25.3039 6.1817 25.3825 5.7829 25.461 5.38411C25.5835 4.76126 26.0632 4.30214 26.5942 4.29975C26.9752 4.29831 27.2773 4.53386 27.3214 4.91637C27.3463 5.13229 27.3123 5.35969 27.2769 5.57704C27.2084 5.99211 27.1203 6.40383 27.0404 6.81603H26.3505C26.4438 6.32293 26.531 5.84705 26.6262 5.37262C26.655 5.22899 26.6789 5.08106 26.5051 5.03941C26.3256 4.99632 26.216 5.12223 26.1824 5.28405C26.0766 5.79056 25.9838 6.30042 25.8837 6.80789C25.8421 7.01902 25.9459 7.10998 26.1394 7.11477C26.474 7.12291 26.8091 7.12099 27.1442 7.12482C27.183 7.12482 27.2223 7.13344 27.2735 7.13966C27.2275 7.37281 27.1835 7.5983 27.138 7.82906C27.0423 7.83672 26.9561 7.8439 26.8441 7.85299C26.7517 8.32312 26.6578 8.7966 26.565 9.27056C26.5391 9.40365 26.5152 9.53674 26.4912 9.67031C26.4419 9.94702 26.4864 10.0121 26.7679 10.0528L26.7675 10.0543ZM26.1446 7.85587C25.7693 7.84007 25.6659 7.91667 25.6051 8.22737C25.5103 8.71043 25.4145 9.19348 25.3241 9.67749C25.2977 9.81776 25.2623 10.0064 25.4586 10.0169C25.5567 10.0222 25.7315 9.88287 25.7549 9.78186C25.9019 9.14991 26.0158 8.51031 26.1446 7.85539V7.85587Z" fill="white"/>
    <path fill-rule="evenodd" clip-rule="evenodd" d="M29.2391 10.0767L29.2606 9.81535L28.8504 9.86849C28.8967 9.62811 28.9421 9.39161 28.9871 9.15739L28.9872 9.15694C29.0481 8.83994 29.1082 8.5271 29.1687 8.21443C29.2951 7.56188 29.4221 6.90943 29.5491 6.25699L29.5493 6.25563C29.8146 4.89237 30.0799 3.52913 30.3402 2.16501C30.5853 0.881014 31.9043 -0.143021 33.1299 0.0164006C34.173 0.151885 34.815 0.956177 34.6523 1.9984C34.5443 2.68832 34.4069 3.37376 34.2695 4.05918L34.2695 4.05919C34.2112 4.34975 34.1529 4.6403 34.0969 4.93119C34.0941 4.94638 34.087 4.96073 34.0786 4.97797C34.0743 4.98682 34.0696 4.99644 34.0648 5.00731H32.4567C32.6219 4.15228 32.7852 3.30921 32.9484 2.46614C32.9598 2.40781 32.9719 2.34958 32.984 2.29134L32.984 2.2913C33.0092 2.17029 33.0344 2.04923 33.0528 1.92707C33.0983 1.62259 32.8345 1.37125 32.5357 1.4445C32.2518 1.51439 32.0603 1.68913 32.0015 1.99074C31.8997 2.51221 31.7974 3.03358 31.695 3.55494C31.5642 4.22111 31.4334 4.88726 31.3039 5.55356C31.2158 6.00674 31.1285 6.46005 31.0412 6.91335L31.0412 6.91338L31.0412 6.91341L31.0412 6.91345L31.0412 6.91348L31.0412 6.91352C30.8861 7.71862 30.731 8.5237 30.5714 9.32799C30.5591 9.39071 30.5003 9.44709 30.4462 9.49909L30.4304 9.51428L30.4149 9.52954C30.3917 9.55278 30.3626 9.56988 30.3334 9.58705L30.3333 9.58705C30.3072 9.60242 30.281 9.61783 30.2588 9.63773C29.9764 9.89051 29.6436 10.0274 29.2401 10.0767H29.2391ZM41.8221 10.2893L41.8745 10.0143L41.8748 10.0127C41.9449 9.64535 42.015 9.27795 42.0839 8.91055C42.1634 8.48781 42.0672 8.36956 41.6425 8.36143C40.4945 8.33988 39.7228 7.39963 39.9368 6.26692C40.1967 4.88957 40.4662 3.51366 40.7372 2.13822C40.8172 1.73273 40.9977 1.37223 41.2562 1.04812C41.4142 0.849919 41.6148 0.77332 41.8604 0.737414C41.9725 0.72124 42.08 0.6781 42.188 0.634773C42.2655 0.60372 42.3431 0.572569 42.4229 0.551183C42.525 0.523497 42.6301 0.508214 42.7353 0.492902C42.7994 0.48359 42.8635 0.474267 42.927 0.462136C43.0409 0.440114 43.1544 0.412826 43.2659 0.38075C43.3331 0.361403 43.3998 0.339172 43.4664 0.316947C43.5994 0.272627 43.7322 0.228328 43.8687 0.206965C43.9898 0.187815 44.1421 0.214625 44.2474 0.276383C44.8875 0.652198 45.18 1.38181 45.0258 2.18179C44.7917 3.39397 44.5562 4.60615 44.3158 5.8169C44.3029 5.88201 44.2412 5.98877 44.2 5.98972C43.8 5.99917 43.4 5.99848 42.988 5.99777H42.988H42.9879H42.9879H42.9879H42.9879H42.9878H42.9878C42.8777 5.99758 42.7667 5.99738 42.6546 5.99738L43.1458 3.45668C43.1744 3.30809 43.2025 3.15941 43.2306 3.01071L43.2306 3.0105C43.2943 2.67398 43.3579 2.33742 43.4273 2.00178C43.4651 1.81794 43.4416 1.63985 43.2803 1.56229C43.1443 1.4967 42.9543 1.47372 42.8088 1.51154C42.5924 1.56756 42.4487 1.74422 42.4037 1.97353C42.1347 3.34131 41.8666 4.70908 41.6038 6.07829C41.5482 6.36841 41.6847 6.53693 41.9805 6.56278C42.0722 6.57071 42.1646 6.57339 42.257 6.57606C42.4044 6.58032 42.5517 6.58457 42.6953 6.61018C43.2588 6.71071 43.6241 7.12674 43.7457 7.74193C43.8347 8.19147 43.7854 8.63096 43.6863 9.06901C43.6734 9.12598 43.636 9.193 43.5891 9.22412C43.1174 9.53675 42.643 9.84574 42.1687 10.1547L42.1687 10.1547L42.1687 10.1547L42.1687 10.1547L42.1687 10.1547L42.1687 10.1547L42.1687 10.1547L42.1687 10.1547L41.879 10.3434C41.8611 10.3264 41.8432 10.309 41.8257 10.2919L41.825 10.2913L41.825 10.2912L41.8247 10.291L41.8235 10.2898L41.8221 10.2893ZM36.4554 3.27328C36.5737 3.23473 36.6921 3.19663 36.8105 3.15854C37.145 3.05095 37.4793 2.94339 37.8103 2.82565C37.8937 2.79594 37.967 2.73539 38.0398 2.67528C38.0655 2.65403 38.0911 2.63284 38.1171 2.61309C38.2355 2.52321 38.3527 2.43164 38.487 2.32665L38.6629 2.1894L38.1455 8.26884L37.5924 14.7684H35.9973L36.0887 13.3418C35.9985 13.3418 35.9093 13.3414 35.8207 13.3411C35.5358 13.3401 35.2581 13.3391 34.9809 13.3489C34.9316 13.3509 34.8631 13.4394 34.842 13.5007C34.7858 13.6648 34.7329 13.8303 34.6801 13.9957L34.68 13.9958C34.6142 14.202 34.5483 14.4082 34.4758 14.6119C34.4514 14.6803 34.3556 14.7679 34.291 14.7699C33.9294 14.78 33.5676 14.7789 33.1936 14.7778C33.0734 14.7774 32.952 14.777 32.8289 14.777L32.9659 14.3228L32.9659 14.3228L32.966 14.3227C33.0979 13.885 33.2275 13.4551 33.3579 13.0258L33.4637 12.6769C34.3845 9.63922 35.3054 6.60112 36.2294 3.56436C36.2489 3.50079 36.2853 3.44221 36.3217 3.38362C36.3383 3.35705 36.3548 3.33048 36.3697 3.30344C36.387 3.29739 36.4043 3.2915 36.4217 3.28559L36.4564 3.27376L36.4554 3.27328ZM36.577 7.85535L36.5248 7.84529L36.2816 8.68718C35.9881 9.70328 35.694 10.7216 35.3969 11.749H36.2002L36.4045 9.63784L36.577 7.85535ZM47.6417 0.217005H46.0417L46.0413 0.216527C45.4893 3.06266 44.9397 5.8954 44.3848 8.75398C44.5459 8.69343 44.703 8.63461 44.8573 8.57684C45.202 8.44781 45.5327 8.324 45.8627 8.19768C45.9473 8.16533 46.0322 8.13334 46.117 8.10133L46.1174 8.10118L46.1178 8.10102L46.1179 8.101C46.4421 7.97871 46.7665 7.85634 47.0816 7.71415L47.1021 7.70487C47.311 7.61069 47.5562 7.50006 47.6647 7.32349C47.8786 6.97517 48.2 6.87598 48.5411 6.77073L48.5418 6.77054C48.5926 6.75492 48.6428 6.73611 48.6929 6.7173L48.6929 6.7173C48.7625 6.69116 48.8321 6.66504 48.9037 6.64751C49.0842 6.60298 49.1502 6.48904 49.1842 6.31286C49.439 4.98252 49.6972 3.65304 49.9553 2.32355L49.9554 2.32344C50.0843 1.65931 50.2133 0.995183 50.3418 0.330947C50.3463 0.307675 50.3431 0.283129 50.3394 0.254199V0.25419V0.25418V0.254169V0.254157V0.254143V0.254127C50.3375 0.239633 50.3355 0.224038 50.3342 0.206952C50.2173 0.206952 50.1012 0.206587 49.9857 0.206225C49.6237 0.205089 49.2674 0.203971 48.9113 0.214133C48.8491 0.216048 48.7486 0.308446 48.7352 0.373076C48.6345 0.855701 48.5415 1.34006 48.4486 1.82438L48.4485 1.82491L48.4484 1.82538L48.4483 1.8258L48.4482 1.82622L48.4482 1.8265C48.4122 2.01407 48.3762 2.20162 48.3397 2.38907C48.0726 3.76546 47.805 5.14138 47.5316 6.51633C47.5182 6.58383 47.4488 6.69011 47.4014 6.69251C47.1499 6.70409 46.8978 6.70281 46.6386 6.7015H46.6385H46.6385H46.6385H46.6385H46.6384C46.5548 6.70107 46.4704 6.70065 46.385 6.70065C46.622 5.47881 46.857 4.26589 47.0919 3.0539L47.0927 3.04954L47.0929 3.04871L47.6417 0.217005ZM41.0226 9.04794H39.3982L39.3977 9.04746C39.3189 9.45262 39.2387 9.85588 39.1588 10.258L39.1588 10.2581C38.9762 11.1769 38.7949 12.0897 38.6327 13.0057C38.467 13.9407 39.0411 14.7541 39.9512 14.9542C41.1964 15.2281 42.6752 14.2375 42.9289 12.9578C43.0731 12.2316 43.2143 11.5044 43.355 10.7772C43.4112 10.4871 43.4658 10.1969 43.5229 9.89415L43.5232 9.89262L43.5232 9.89234L43.5235 9.89084L43.5235 9.89079C43.5514 9.74295 43.5798 9.59207 43.6092 9.43668C42.983 9.79286 42.3995 10.1251 41.7814 10.477L41.6895 10.9565L41.6871 10.969L41.6866 10.9715L41.6865 10.9722C41.6088 11.3784 41.5274 11.8037 41.4439 12.2287C41.4295 12.3021 41.4158 12.3758 41.4022 12.4495L41.4021 12.4495C41.3592 12.6816 41.3161 12.9139 41.2486 13.1388C41.1571 13.4423 40.8033 13.6156 40.5194 13.5343C40.2882 13.4682 40.2092 13.2547 40.2796 12.8951L40.3582 12.4942C40.4943 11.7996 40.6305 11.105 40.765 10.41C40.8281 10.0845 40.8892 9.75887 40.9511 9.4284L41.0226 9.04794ZM32.9026 9.95608L32.8925 10.0766L32.8839 10.1801H33.0558C33.0574 10.1912 33.0595 10.2012 33.0614 10.2105C33.0652 10.2289 33.0684 10.2441 33.0658 10.2582C33.0161 10.5146 32.9675 10.7713 32.9188 11.0279L32.9188 11.028L32.9188 11.0281L32.9188 11.0281C32.7983 11.6637 32.6779 12.2993 32.5411 12.9315C32.2654 14.2069 30.9929 15.1112 29.6983 14.9762C28.7365 14.8757 28.0797 13.9531 28.253 12.9449C28.2775 12.8031 28.3048 12.6619 28.3333 12.5149L28.3333 12.5149L28.3333 12.5147L28.3334 12.5146L28.3334 12.5145C28.3488 12.4348 28.3645 12.3535 28.3804 12.2694C28.3159 12.2772 28.2528 12.2829 28.191 12.2886H28.191C28.0628 12.3003 27.94 12.3115 27.8212 12.3393C26.722 12.5944 25.7123 13.077 24.8065 13.7262C24.5386 13.918 24.2534 14.0077 23.9678 14.0974C23.8365 14.1387 23.705 14.18 23.5752 14.2313C23.6608 14.1857 23.7468 14.1409 23.8328 14.0961C24.0161 14.0005 24.1994 13.905 24.379 13.8023C24.5827 13.6861 24.7846 13.5665 24.9864 13.4468C25.3244 13.2465 25.6623 13.0461 26.0091 12.8621C26.4989 12.6026 27.0049 12.3709 27.5162 12.1564C27.7958 12.0391 28.0462 11.9137 28.2152 11.648C28.2671 11.5664 28.3366 11.4964 28.4064 11.4263C28.448 11.3844 28.4897 11.3425 28.5278 11.298C28.5618 11.2583 28.5991 11.2023 28.5982 11.1544C28.594 10.9374 28.7345 10.8803 28.8999 10.8129L28.9185 10.8054C29.2657 10.664 29.6081 10.5115 29.9613 10.3543C30.1067 10.2896 30.2539 10.224 30.404 10.1581C30.3883 10.2444 30.3726 10.3312 30.357 10.4182L30.3569 10.4183L30.3569 10.4184L30.3569 10.4184C30.3193 10.6276 30.2813 10.8382 30.2408 11.0481C30.1369 11.5862 30.0307 12.1242 29.9247 12.662L29.9246 12.6621L29.8822 12.8774C29.8099 13.2441 29.8951 13.4681 30.1345 13.5347C30.4481 13.6213 30.8028 13.415 30.8847 13.067C30.9577 12.7548 31.0169 12.4396 31.0761 12.1245C31.1007 11.9935 31.1253 11.8625 31.1509 11.7317C31.1684 11.642 31.1852 11.5521 31.2019 11.4621L31.2019 11.4621L31.2019 11.462L31.202 11.462L31.202 11.462C31.2466 11.2227 31.2912 10.9834 31.35 10.7479C31.372 10.6603 31.4644 10.5751 31.5458 10.521C31.6182 10.4732 31.6964 10.4338 31.7744 10.3946L31.7744 10.3946C31.865 10.349 31.9555 10.3034 32.0365 10.2448C32.2912 10.0604 32.5651 9.9623 32.9021 9.95512L32.9026 9.95608ZM47.7793 13.5228L47.7794 13.5223L47.7795 13.5218C48.1122 11.8117 48.445 10.1015 48.7711 8.39011C48.8233 8.11604 48.9399 7.58821 48.9399 7.58821C48.9399 7.58821 48.3396 7.84285 48.0501 8.00089C47.8749 8.09616 47.6848 8.1852 47.4914 8.22159C47.2928 8.25893 47.1826 8.33026 47.1434 8.53469C46.943 9.58188 46.7397 10.6284 46.5364 11.675L46.536 11.6771L46.5359 11.6776L46.5358 11.6781C46.4401 12.1707 46.3445 12.6633 46.2491 13.156C46.181 13.5088 46.1134 13.8616 46.045 14.2191L46.0444 14.2225L46.0443 14.2231L45.9408 14.7636H47.5283C47.5336 14.7419 47.5392 14.7201 47.5449 14.6981L47.5449 14.6981C47.5567 14.6524 47.5686 14.6062 47.5776 14.5597L47.7793 13.5228ZM43.2181 14.777L43.2938 14.3824C43.3881 13.8902 43.4803 13.4094 43.5733 12.9286C43.6424 12.5723 43.712 12.2163 43.7815 11.8602L43.7815 11.8602C43.9456 11.0199 44.1096 10.1798 44.268 9.33846C44.3001 9.16803 44.3652 9.0718 44.5351 9.02297C44.8819 8.92327 45.2269 8.81703 45.5815 8.70788L45.5816 8.70783C45.7258 8.66343 45.8716 8.61855 46.0197 8.57343L45.9527 8.91974L45.9514 8.92665C45.8705 9.34526 45.7904 9.75948 45.71 10.1734C45.641 10.5287 45.5718 10.8839 45.5027 11.2392L45.5024 11.2404L45.5024 11.2407C45.2869 12.3473 45.0715 13.4537 44.8621 14.5616C44.8305 14.7282 44.7759 14.7866 44.6026 14.7818C44.279 14.7729 43.9549 14.7745 43.6225 14.7762H43.6224H43.6224C43.4891 14.7768 43.3545 14.7775 43.2181 14.7775V14.777ZM36.4033 2.40874C36.4207 2.40282 36.438 2.39693 36.4553 2.39088C36.4829 2.37098 36.5098 2.34984 36.5368 2.3287C36.5955 2.2827 36.6543 2.23666 36.7195 2.20321C36.949 2.08598 37.1793 1.97033 37.4096 1.85467C37.7757 1.67087 38.1417 1.48706 38.5043 1.29695C38.5833 1.25577 38.6608 1.14231 38.6728 1.05327C38.6785 1.01036 38.6939 0.942107 38.7129 0.857414C38.7519 0.683849 38.8065 0.441254 38.8255 0.206392C38.6861 0.206392 38.5494 0.206903 38.4147 0.207407C38.0792 0.208662 37.7558 0.209871 37.4324 0.203041C37.2864 0.200168 37.2251 0.249958 37.1844 0.387358C37.0508 0.838784 36.9148 1.06787 36.7785 1.29736C36.6429 1.5259 36.5069 1.75483 36.3729 2.20417C36.3592 2.24974 36.3625 2.30048 36.3657 2.35116C36.3673 2.37447 36.3688 2.39778 36.3686 2.42056C36.3802 2.41656 36.3918 2.41264 36.4033 2.40874Z" fill="#4690FF"/>
    <path fill-rule="evenodd" clip-rule="evenodd" d="M6.35887 1.00528L6.35882 1.00531L6.3588 1.00532C6.19976 1.1006 6.04042 1.19606 5.87691 1.28365C5.70784 1.37466 5.53464 1.45791 5.36249 1.54064C5.29287 1.57411 5.22342 1.60749 5.15448 1.64127C4.71021 1.3162 4.23673 1.47706 4.15438 2.01421C4.11145 2.29402 3.929 2.34928 3.75009 2.40347C3.70156 2.41816 3.65329 2.43278 3.60814 2.45178C3.35093 2.56019 3.08476 2.64669 2.8186 2.73318L2.81859 2.73318L2.81859 2.73319C2.71568 2.76663 2.61276 2.80007 2.51037 2.83478C2.48125 2.8446 2.45079 2.85084 2.41913 2.85732L2.41913 2.85732L2.4191 2.85732C2.40446 2.86032 2.38955 2.86337 2.37441 2.86686C2.4491 1.23434 3.46786 0.298869 4.62499 0.0590174C5.44364 -0.110458 6.20868 0.211737 6.56774 0.881022C6.49796 0.921958 6.42844 0.963602 6.35887 1.00528ZM7.29446 11.2831C7.31708 11.1595 7.34 11.0342 7.36434 10.9069H7.36482C7.48975 10.9069 7.61275 10.9074 7.7344 10.908L7.73481 10.908H7.73495H7.73496H7.73497H7.73499H7.735H7.73501H7.73502H7.73503C8.00475 10.9092 8.26789 10.9104 8.53104 10.9054C9.15532 10.8939 9.61827 10.6134 9.87009 10.036C9.98403 9.77464 10.0803 9.49937 10.1358 9.22074C10.5738 7.01803 11.0061 4.81389 11.4255 2.60736C11.5184 2.11664 11.5964 1.6154 11.6041 1.1175C11.6132 0.557371 11.2833 0.250975 10.7227 0.227037C10.315 0.209732 9.9064 0.208988 9.49804 0.208245C9.36414 0.208001 9.23026 0.207758 9.09644 0.20693C8.81148 0.205279 8.52652 0.205678 8.23607 0.206084H8.23606C8.10539 0.206267 7.97361 0.206451 7.84021 0.206451C7.30096 2.98586 6.76279 5.75824 6.22438 8.53189L5.20759 13.7702C5.28479 13.7247 5.35897 13.6783 5.43175 13.6328L5.43177 13.6328C5.58691 13.5358 5.73574 13.4427 5.89411 13.37C6.27423 13.1953 6.58685 12.9334 6.87506 12.6442C6.98852 12.5298 7.07134 12.3594 7.10964 12.2004C7.18145 11.9009 7.23698 11.5973 7.29446 11.2832L7.29446 11.2831ZM8.69956 8.58401C8.59375 9.12834 8.29502 9.33037 7.68749 9.24611V9.24563C7.75459 8.90001 7.82081 8.55807 7.88664 8.21817C7.96688 7.80383 8.04655 7.3925 8.1265 6.98117C8.20213 6.59253 8.27804 6.20392 8.35395 5.8153L8.35513 5.80929L8.35516 5.80913L8.3552 5.80889L8.35525 5.80865L8.35529 5.80841L8.35534 5.80816L8.35539 5.80792L8.35543 5.80768L8.35547 5.80748C8.59476 4.58253 8.83406 3.35746 9.06484 2.13101C9.10362 1.92323 9.15771 1.827 9.38991 1.84519C9.69678 1.86961 9.85237 1.94908 9.88876 2.18319C9.90408 2.28325 9.89929 2.39144 9.88014 2.4915C9.48853 4.52281 9.09404 6.55365 8.69956 8.58401ZM19.2853 13.1278C19.9282 13.2039 20.1982 13.0153 20.3188 12.3977C20.6864 10.5167 21.0508 8.63508 21.4152 6.75358L21.7215 5.17202C21.7621 4.96329 21.8035 4.75471 21.8449 4.54613L21.845 4.54582L21.8451 4.5455L21.8451 4.54518L21.8452 4.54487L21.8453 4.54455L21.8453 4.54424L21.8454 4.54392L21.8454 4.5436L21.8455 4.54354L21.8455 4.54346C21.9576 3.97931 22.0696 3.41515 22.1639 2.84819C22.2048 2.6039 22.3812 2.53659 22.5423 2.47509C22.5754 2.46246 22.6078 2.45008 22.6383 2.43647C22.9365 2.30267 23.2479 2.19851 23.5708 2.09048L23.5708 2.09047C23.7032 2.0462 23.8375 2.00128 23.9735 1.95341L23.8256 2.71982C23.6931 3.40664 23.5632 4.07976 23.4321 4.75264C22.9107 7.42642 22.3894 10.1002 21.8652 12.7735C21.8436 12.8836 21.8142 12.9923 21.7848 13.1009L21.7848 13.1009C21.7496 13.2308 21.7145 13.3607 21.6928 13.4926C21.6253 13.9067 21.3476 14.1083 20.9948 14.26C20.8849 14.3072 20.7788 14.3639 20.6727 14.4206C20.5548 14.4836 20.4368 14.5467 20.3135 14.5966C20.1125 14.678 19.8966 14.7637 19.685 14.7694C19.1309 14.7843 18.5766 14.7819 18.0133 14.7794H18.0133H18.0132H18.0132H18.0132H18.0132H18.0132H18.0131H18.0131C17.7992 14.7785 17.5839 14.7776 17.3669 14.7776L17.4589 14.2941L17.4591 14.2927C17.5452 13.8403 17.6295 13.3969 17.7154 12.954L18.1378 10.7804C18.5517 8.6508 18.9656 6.52126 19.3771 4.39118C19.4049 4.24756 19.4575 4.15229 19.5954 4.08048C19.8534 3.94658 20.1074 3.80461 20.3614 3.66264L20.3614 3.66263L20.3614 3.66263L20.3615 3.66262L20.3615 3.66261L20.3615 3.6626L20.3615 3.6626L20.3615 3.66259L20.3616 3.66256C20.5035 3.58324 20.6454 3.50393 20.788 3.42603C20.8723 3.37995 20.9595 3.33923 21.0591 3.29274L21.0592 3.29269C21.1054 3.27109 21.1544 3.24825 21.2069 3.22305L19.2853 13.1278ZM5.43889 9.06079C5.33242 9.60226 5.22752 10.1441 5.12261 10.6861C4.97467 11.4503 4.82671 12.2146 4.67433 12.9779C4.42538 14.2231 2.99777 15.1882 1.7492 14.9656C0.828097 14.8019 0.214346 13.9584 0.381428 13.008C0.54391 12.0842 0.727106 11.1638 0.91121 10.239C0.989654 9.84488 1.06826 9.44997 1.1455 9.05361H2.76989C2.74239 9.19935 2.71518 9.3444 2.68807 9.48897L2.68797 9.4895L2.68795 9.48961L2.68793 9.48972L2.68791 9.48983L2.68785 9.49011C2.63007 9.79823 2.57269 10.1042 2.51376 10.4099C2.38508 11.0728 2.25518 11.7357 2.12527 12.3987L2.02783 12.896C1.95746 13.2551 2.03741 13.4686 2.26864 13.5347C2.55301 13.6156 2.90489 13.4413 2.99777 13.1378C3.06391 12.92 3.10582 12.6945 3.14769 12.4692L3.14769 12.4692L3.14769 12.4692L3.1477 12.4692L3.1477 12.4692L3.1477 12.4692L3.1477 12.4692L3.1477 12.4692C3.15977 12.4042 3.17184 12.3393 3.18448 12.2746C3.40279 11.1486 3.61966 10.0221 3.83509 8.89562C3.91217 8.493 3.80828 8.36852 3.39944 8.36182C2.238 8.34171 1.47057 7.39763 1.68697 6.25199C1.73923 5.97683 1.79293 5.70214 1.84888 5.41588L1.92059 5.04843C1.92059 5.04843 2.06183 4.2609 2.22938 3.71035C2.22938 3.71035 2.9925 3.44942 3.25821 3.335C3.51194 3.22537 3.69913 3.07074 3.86908 2.87206C3.87748 2.86216 3.89207 2.85753 3.91862 2.84909L3.91863 2.84909L3.91863 2.84909L3.91863 2.84909L3.91863 2.84909L3.91864 2.84909C3.93448 2.84405 3.95458 2.83767 3.98015 2.82801L3.90645 3.20924L3.90627 3.21013C3.80456 3.73628 3.70604 4.24586 3.60721 4.75544C3.57872 4.90182 3.54989 5.04804 3.52107 5.19422C3.46515 5.47784 3.40926 5.76133 3.35587 6.04566C3.29363 6.37407 3.42672 6.54355 3.76615 6.56844C3.84797 6.57429 3.93028 6.57609 4.01255 6.57789H4.01255C4.14593 6.58082 4.27919 6.58374 4.41007 6.60387C4.99126 6.69388 5.37282 7.119 5.4949 7.75669C5.57964 8.19857 5.52362 8.62801 5.43889 9.06079ZM17.0159 13.1766H15.4461V13.1761L15.6235 12.2608C15.8731 10.9732 16.1184 9.70829 16.3605 8.44275C16.3883 8.29721 16.4783 8.29721 16.5869 8.29721L16.7682 8.29797H16.7683C17.1066 8.29949 17.445 8.30102 17.7833 8.2929C17.8523 8.29146 17.9705 8.23928 17.981 8.19188C18.0653 7.80879 18.1387 7.42334 18.2143 7.02575L18.2144 7.02567C18.235 6.91748 18.2557 6.80839 18.2769 6.6982H16.7023C16.9819 5.25982 17.2575 3.83985 17.5345 2.41246L17.6512 1.81117H19.2272L19.535 0.218867H16.3591L15.2746 5.80672C14.6951 8.79279 14.1152 11.7807 13.5335 14.777H16.1226H16.124C16.7085 14.777 16.711 14.777 16.8254 14.2006C16.8718 13.9678 16.9143 13.7341 16.9586 13.4904L16.9587 13.49C16.9773 13.3875 16.9962 13.2832 17.0159 13.1766ZM12.531 0.215635H15.7046C15.6022 0.749915 15.5026 1.26935 15.4001 1.80555H13.8232L12.8733 6.69545H14.4489L14.2665 7.63951L14.1391 8.29876C14.0102 8.29876 13.8819 8.29981 13.7542 8.30085H13.7541C13.4491 8.30333 13.1468 8.30578 12.8456 8.29397C12.6297 8.28536 12.5435 8.34424 12.5057 8.56877C12.4379 8.9696 12.3596 9.36866 12.2814 9.76767L12.2814 9.76775L12.2813 9.76783L12.2813 9.76791L12.2813 9.76798L12.2813 9.76806C12.2186 10.0876 12.156 10.4071 12.0987 10.7274C12.0628 10.9295 11.9766 11.0266 11.7799 11.109C11.4744 11.2378 11.1802 11.3935 10.8861 11.5491L10.886 11.5491L10.886 11.5491L10.886 11.5491L10.886 11.5491L10.886 11.5491L10.8859 11.5492C10.7735 11.6087 10.6611 11.6681 10.5481 11.7261C10.4924 11.7548 10.4382 11.7863 10.3708 11.8256C10.3392 11.844 10.3046 11.8641 10.2656 11.8865C11.0259 7.96939 11.7765 4.10209 12.531 0.215635ZM19.7466 2.50226L19.4411 4.07851L19.4421 4.07803C19.4938 4.04954 19.54 4.0248 19.5822 4.00215C19.6664 3.95706 19.735 3.9203 19.8007 3.87887C19.8771 3.83059 19.9521 3.77953 20.0271 3.72844L20.0271 3.72841L20.0271 3.72839C20.1485 3.64574 20.2699 3.56304 20.3977 3.49205C21.2302 3.03053 21.2393 3.02431 21.4251 2.11805C21.4275 2.10677 21.4279 2.09391 21.4283 2.08124V2.08122C21.429 2.05895 21.4297 2.03724 21.4413 2.02565C21.4532 2.01346 21.4653 2.00006 21.4776 1.98641L21.4776 1.98637L21.4777 1.98629C21.5238 1.93512 21.5731 1.88048 21.6271 1.87293C21.9344 1.8308 22.1944 1.90022 22.2777 2.28609C22.3523 2.21616 22.4225 2.14677 22.4907 2.07926L22.4907 2.07924C22.6384 1.93321 22.7771 1.79602 22.9326 1.68143C23.239 1.45546 23.566 1.25391 23.8982 1.06768C24.0237 0.997306 24.0237 0.93842 23.9897 0.826394C23.8791 0.462069 23.6043 0.237059 23.161 0.228921C22.4564 0.216085 21.7516 0.215818 21.0468 0.215552C20.779 0.215451 20.5113 0.215349 20.2435 0.214558C20.235 0.214558 20.2265 0.219973 20.2129 0.228591C20.2051 0.233532 20.1957 0.239526 20.1837 0.246155C20.0397 0.990367 19.8945 1.73933 19.7466 2.50226ZM6.63965 0.99071C6.83977 1.37323 6.84886 1.76149 6.77609 2.14831C6.5463 3.37582 6.30453 4.6014 6.05989 5.82603C6.04697 5.89114 5.96558 5.99072 5.91388 5.99216C5.52989 6.00187 5.14532 6.00109 4.74538 6.00028H4.74536H4.74534H4.74532L4.74475 6.00028C4.63231 6.00005 4.51864 5.99982 4.40344 5.99982C4.44296 5.79302 4.48156 5.59003 4.51971 5.38944C4.58091 5.06762 4.64094 4.75199 4.70169 4.43672L4.78712 3.99274L4.78712 3.99273L4.78713 3.99272L4.78713 3.99271C4.9103 3.35168 5.03345 2.71075 5.16608 2.07172C5.18714 1.96974 5.26757 1.85389 5.35422 1.79644C5.65863 1.59561 5.96922 1.4043 6.28825 1.2078C6.40423 1.13636 6.52133 1.06423 6.63965 0.99071ZM13.1906 13.1738L13.1907 13.1733L13.1916 13.1738H13.1906ZM11.6204 13.1738H13.1906C13.1685 13.2895 13.1471 13.4028 13.1261 13.5142L13.126 13.5143L13.126 13.5146C13.0513 13.9098 12.9813 14.2804 12.9025 14.6493C12.8915 14.7005 12.7986 14.7709 12.7435 14.7713C11.9157 14.7773 11.088 14.777 10.2443 14.7767L9.70638 14.7766L9.81656 14.2025C9.88165 13.8632 9.94568 13.5295 10.0099 13.1958C10.0139 13.1749 10.0182 13.154 10.0225 13.1331C10.0328 13.0838 10.043 13.0345 10.0487 12.9847C10.0693 12.8037 10.155 12.7242 10.3398 12.6486C10.5655 12.5564 10.767 12.3976 10.9648 12.2418L10.9648 12.2418C10.9981 12.2156 11.0314 12.1894 11.0646 12.1636C11.2569 12.0146 11.4415 11.8558 11.6263 11.697L11.6265 11.6968C11.7075 11.6271 11.7886 11.5575 11.8703 11.4886L11.9325 11.5259L11.7974 12.2393L11.7966 12.2437L11.7964 12.2444C11.7388 12.5481 11.6804 12.856 11.6204 13.1738ZM6.71905 14.0883C6.71903 14.0882 6.71902 14.0882 6.719 14.0881H6.71948C6.71934 14.0882 6.71919 14.0882 6.71905 14.0883ZM6.71905 14.0883C6.3328 14.227 5.95004 14.3645 5.56827 14.5017C5.38472 14.5677 5.2014 14.6336 5.01802 14.6995C5.02042 14.7124 5.02269 14.7253 5.02497 14.7383C5.02724 14.7512 5.02951 14.7641 5.03191 14.7771H5.99371C6.42521 14.7771 6.67145 14.564 6.73241 14.1379C6.73298 14.1336 6.73149 14.129 6.72815 14.1185C6.72592 14.1116 6.72287 14.102 6.71905 14.0883Z" fill="#FF5C00"/>
</svg>
